<svg version="1.1" xmlns="http://www.w3.org/2000/svg" xmlns:xlink="http://www.w3.org/1999/xlink" x="0px"
	 y="0px" viewBox="0 0 32 32" enable-background="new 0 0 32 32" xml:space="preserve">
<g>
	<path fill="#D0021B" d="M23,23.1H9c-0.6,0-1-0.5-1-1.1c0-0.2,0-0.4,0.1-0.5l7-12C15.4,9,16,8.8,16.5,9.1c0.2,0.1,0.3,0.2,0.4,0.4
		l7,12c0.3,0.5,0.1,1.1-0.4,1.4C23.3,23,23.1,23.1,23,23.1z M16,19.8c-0.5,0-0.8,0.4-0.8,0.8c0,0.5,0.4,0.8,0.8,0.8
		c0.5,0,0.8-0.4,0.8-0.8c0,0,0,0,0,0C16.8,20.2,16.5,19.8,16,19.8z M16,13.2c-0.4,0-0.8,0.4-0.8,0.8c0,0,0,0,0,0l0.1,4.6
		c0,0.4,0.3,0.6,0.7,0.6c0.4,0,0.7-0.3,0.7-0.6l0.1-4.6C16.8,13.5,16.5,13.2,16,13.2C16,13.2,16,13.2,16,13.2L16,13.2z"/>
</g>
</svg>
