<svg xmlns="http://www.w3.org/2000/svg" width="30" height="20" viewBox="0 0 30 20">
    <path
          d="M24.911,20a6.1,6.1,0,0,1-4.554-2.21,7.864,7.864,0,0,1-2.028-5.5,11.985,11.985,0,0,1,2.563-7.422A13.805,13.805,0,0,1,28.164.116V1.589a16.227,16.227,0,0,0-5.09,4.031,7.241,7.241,0,0,0-1.225,4.186,2.642,2.642,0,0,0,.421,1.628,1.159,1.159,0,0,0,.88.542,4.1,4.1,0,0,0,1.263-.31,4.855,4.855,0,0,1,1.684-.31A3.944,3.944,0,0,1,30,15.31,4.411,4.411,0,0,1,28.526,18.6,5.082,5.082,0,0,1,24.911,20ZM6.7,19.961a6.205,6.205,0,0,1-4.63-2.248A7.917,7.917,0,0,1,0,12.171,11.774,11.774,0,0,1,2.544,4.942,14.763,14.763,0,0,1,9.911,0V1.589A14.39,14.39,0,0,0,5.09,5.31,6.923,6.923,0,0,0,3.635,9.535a3.26,3.26,0,0,0,.382,1.86,1,1,0,0,0,.842.543A4.388,4.388,0,0,0,6.2,11.647a4.758,4.758,0,0,1,1.53-.291,3.737,3.737,0,0,1,2.736,1.183,3.97,3.97,0,0,1,1.167,2.887,4.263,4.263,0,0,1-1.416,3.2A4.95,4.95,0,0,1,6.7,19.961Z"
          transform="translate(0 0)" fill="#f56a75"/>
</svg>
