<svg version="1.1" id="icon_solid_required" xmlns="http://www.w3.org/2000/svg" xmlns:xlink="http://www.w3.org/1999/xlink"
	 x="0px" y="0px" viewBox="0 0 32 32" enable-background="new 0 0 32 32" xml:space="preserve">
<g>
	<path fill="#D0021B" d="M19.9,18.3c-0.2,0.3-0.6,0.5-1,0.3l0,0l-2.2-1.3v2.5c0,0.4-0.3,0.7-0.7,0.7c-0.4,0-0.7-0.3-0.7-0.7l0,0
		v-2.5l-2.2,1.3c-0.3,0.2-0.8,0.1-1-0.3s-0.1-0.8,0.3-1l2.2-1.3l-2.2-1.3c-0.3-0.2-0.5-0.6-0.3-1s0.6-0.5,1-0.3l2.2,1.3v-2.5
		c0-0.4,0.3-0.7,0.7-0.7c0.4,0,0.7,0.3,0.7,0.7v2.5l2.2-1.3c0.3-0.2,0.8-0.1,1,0.3c0.2,0.3,0.1,0.8-0.3,1L17.5,16l2.2,1.3
		C20,17.5,20.1,17.9,19.9,18.3L19.9,18.3L19.9,18.3z"/>
</g>
</svg>
